<?xml version="1.0" standalone="no"?>
<!DOCTYPE svg PUBLIC "-//W3C//DTD SVG 20010904//EN"
 "http://www.w3.org/TR/2001/REC-SVG-20010904/DTD/svg10.dtd">
<svg version="1.0" xmlns="http://www.w3.org/2000/svg"
 width="842.000000pt" height="842.000000pt" viewBox="0 0 842.000000 842.000000"
 preserveAspectRatio="xMidYMid meet">
<metadata>
Created by potrace 1.14, written by Peter Selinger 2001-2017
</metadata>
<g transform="translate(0.000000,842.000000) scale(0.100000,-0.100000)"
fill="#000000" stroke="none">
<path d="M3969 8416 c-2 -2 -49 -7 -104 -11 -55 -4 -106 -8 -115 -10 -8 -1
-42 -6 -75 -10 -32 -4 -66 -8 -75 -10 -8 -1 -36 -5 -61 -9 -62 -9 -101 -16
-119 -21 -8 -2 -31 -7 -50 -10 -19 -3 -73 -15 -120 -27 -47 -11 -89 -21 -95
-22 -191 -43 -568 -183 -785 -291 -113 -56 -159 -80 -276 -146 -199 -111 -491
-322 -684 -494 -72 -64 -321 -316 -365 -369 -22 -27 -49 -59 -61 -71 -42 -45
-183 -233 -256 -340 -132 -193 -257 -418 -357 -640 -18 -38 -36 -79 -41 -90
-72 -153 -181 -501 -234 -745 -22 -100 -30 -144 -51 -269 -3 -14 -7 -52 -11
-85 -3 -34 -8 -74 -10 -91 -20 -142 -26 -603 -11 -777 17 -201 38 -342 77
-533 6 -27 12 -59 14 -70 8 -39 38 -151 62 -232 14 -45 27 -90 29 -100 5 -26
78 -225 113 -313 98 -242 206 -451 353 -682 78 -122 232 -339 270 -378 8 -8
32 -37 54 -65 86 -107 339 -367 445 -457 30 -26 77 -65 104 -88 251 -213 618
-439 971 -600 273 -124 723 -258 1025 -305 25 -4 52 -9 60 -10 8 -2 47 -6 85
-10 39 -4 79 -9 90 -11 147 -29 725 -25 952 7 40 5 87 12 105 14 28 3 71 10
233 40 17 3 46 10 65 15 19 5 46 11 60 13 137 25 539 160 740 249 60 27 285
139 335 168 114 64 323 194 365 227 8 6 53 40 100 74 76 55 192 149 290 234
51 45 329 325 377 381 421 490 729 1072 894 1689 44 165 91 411 104 545 3 30
8 64 10 75 26 119 26 768 1 900 -2 11 -7 52 -11 90 -18 184 -97 537 -167 755
-135 419 -350 840 -613 1200 -39 53 -148 193 -170 216 -5 7 -37 43 -70 80 -62
72 -282 294 -350 354 -130 115 -367 300 -384 300 -5 0 -11 4 -13 8 -3 7 -183
132 -191 132 -2 0 -45 25 -95 55 -84 51 -313 169 -404 209 -21 9 -53 22 -70
30 -159 70 -514 188 -631 212 -10 2 -26 5 -35 8 -9 3 -28 7 -42 10 -14 3 -36
8 -50 11 -55 13 -228 44 -280 50 -30 3 -62 8 -70 10 -8 2 -47 7 -87 10 -40 4
-85 9 -100 11 -33 6 -589 14 -594 10z"/>
</g>
</svg>
